<svg xmlns="http://www.w3.org/2000/svg" width="400" height="200" viewBox="0 0 400 200">
<!--
  <g id="Layer_1" data-name="Layer 1">
    <rect width="400" height="200" fill="#262626"/>
  </g>
-->
  <g id="GreenSock">
    <g>
      <g>
        <path d="M133.29,122.64c0-.48.2-.68.68-.68h7.49c.27,0,.41.2.41.68V123c0,.48-.14.68-.41.68h-6.28v4.93h5.61c.27,0,.4.2.4.68v.33c0,.48-.13.68-.4.68h-5.61v5.27h6.28c.27,0,.41.2.41.67v.34c0,.47-.14.68-.41.68H133.9c-.47,0-.68-.21-.68-.68V122.64Z" fill="#848484"/>
        <path d="M144.77,129.05a11.6,11.6,0,0,0-.27-2.7c0-.4.88-.47,1.15-.47.54,0,.61.88.74,1.42a4.59,4.59,0,0,1,3.38-1.62,3.2,3.2,0,0,1,3.51,3.51v7.49c0,.28-.27.48-.88.48h-.06c-.61,0-.88-.2-.88-.48v-7.29a2,2,0,0,0-2.23-2.09,3.68,3.68,0,0,0-2.7,1.48v7.9c0,.28-.27.48-.88.48h-.07c-.61,0-.88-.2-.88-.48l.07-7.63Z" fill="#848484"/>
        <path d="M158.08,136.21a1.87,1.87,0,0,1-1.35-1.75c0-1.08.87-1.56,1.62-1.83a3.41,3.41,0,0,1-2-3.24c0-2,1.48-3.71,4.32-3.71a8.29,8.29,0,0,1,1.42.13h3.71c.27,0,.41.2.41.68v.27c0,.47-.14.67-.41.67h-1.48a3.29,3.29,0,0,1,.74,2c0,2-1.49,3.71-4.32,3.71h-.2c-.54,0-1.83.14-1.83.88,0,1.69,7.3,0,7.3,4.26,0,1.89-1.89,3.37-5.41,3.37-2.83,0-4.86-.6-4.86-2.83C155.65,137.56,156.66,136.69,158.08,136.21Zm2.7,3.85c2,0,3.24-.74,3.24-1.75,0-1.29-2.3-1.42-4.32-1.76-.88.34-2.16,1.08-2.16,2C157.54,139.79,159,140.06,160.78,140.06Zm2.36-10.67c0-1.69-1.08-2.16-2.43-2.16s-2.43.54-2.43,2.16,1.08,2.16,2.43,2.16S163.14,131.08,163.14,129.39Z" fill="#848484"/>
        <path d="M174.89,130.07v-1c0-.94-.6-1.82-2.36-1.82a8.11,8.11,0,0,0-3.38.88c-.27,0-.74-.81-.74-1.08,0-.54,1.89-1.35,4.05-1.35,2.7,0,4.26,1.28,4.26,3.37v4.8a11.6,11.6,0,0,0,.27,2.7c0,.41-.88.47-1.15.47-.54,0-.61-.87-.74-1.48a4.88,4.88,0,0,1-3.65,1.62c-2.09,0-3.72-1-3.72-3.24C167.73,130.34,171.65,130.07,174.89,130.07Zm-3.37,5.53a4.91,4.91,0,0,0,3.37-1.48v-2.57c-2.23,0-5.2,0-5.2,2.23A1.61,1.61,0,0,0,171.52,135.6Z" fill="#848484"/>
        <path d="M181.65,136.21a1.87,1.87,0,0,1-1.35-1.75c0-1.08.87-1.56,1.62-1.83a3.41,3.41,0,0,1-2-3.24c0-2,1.48-3.71,4.32-3.71a8.29,8.29,0,0,1,1.42.13h3.71c.27,0,.41.2.41.68v.27c0,.47-.14.67-.41.67h-1.48a3.29,3.29,0,0,1,.74,2c0,2-1.48,3.71-4.32,3.71h-.2c-.54,0-1.83.14-1.83.88,0,1.69,7.3,0,7.3,4.26,0,1.89-1.89,3.37-5.41,3.37-2.83,0-4.86-.6-4.86-2.83C179.22,137.56,180.16,136.69,181.65,136.21Zm2.63,3.85c2,0,3.24-.74,3.24-1.75,0-1.29-2.29-1.42-4.32-1.76-.88.34-2.16,1.08-2.16,2C181,139.79,182.52,140.06,184.28,140.06Zm2.36-10.67c0-1.69-1.08-2.16-2.43-2.16s-2.43.54-2.43,2.16,1.08,2.16,2.43,2.16S186.64,131.08,186.64,129.39Z" fill="#848484"/>
        <path d="M192.12,122.64v-1.29c0-.27.27-.47.87-.47h.27c.61,0,.88.2.88.47v1.29c0,.27-.27.47-.88.47H193C192.39,123.11,192.12,122.91,192.12,122.64Zm.06,3.58c0-.27.27-.48.88-.48h.07c.61,0,.88.21.88.48v10.4c0,.27-.27.47-.88.47h-.07c-.61,0-.88-.2-.88-.47Z" fill="#848484"/>
        <path d="M197.79,129.05a11.6,11.6,0,0,0-.27-2.7c0-.4.88-.47,1.15-.47.54,0,.6.88.74,1.42a4.59,4.59,0,0,1,3.38-1.62,3.2,3.2,0,0,1,3.51,3.51v7.49c0,.28-.27.48-.88.48h-.07c-.6,0-.87-.2-.87-.48v-7.29a2,2,0,0,0-2.23-2.09,3.68,3.68,0,0,0-2.7,1.48v7.9c0,.28-.27.48-.88.48h-.07c-.61,0-.88-.2-.88-.48l.07-7.63Z" fill="#848484"/>
        <path d="M211.09,136.21a1.87,1.87,0,0,1-1.35-1.75c0-1.08.88-1.56,1.62-1.83a3.42,3.42,0,0,1-2-3.24c0-2,1.48-3.71,4.32-3.71a8.29,8.29,0,0,1,1.42.13h3.71c.27,0,.41.2.41.68v.27c0,.47-.14.67-.41.67h-1.55a3.29,3.29,0,0,1,.74,2c0,2-1.49,3.71-4.32,3.71h-.21c-.54,0-1.82.14-1.82.88,0,1.69,7.3,0,7.3,4.26,0,1.89-1.9,3.37-5.41,3.37-2.83,0-4.86-.6-4.86-2.83C208.66,137.56,209.67,136.69,211.09,136.21Zm2.71,3.85c1.95,0,3.24-.74,3.24-1.75,0-1.29-2.3-1.42-4.33-1.76-.87.34-2.16,1.08-2.16,2C210.55,139.79,212,140.06,213.8,140.06Zm2.36-10.67c0-1.69-1.08-2.16-2.43-2.16s-2.43.54-2.43,2.16,1.08,2.16,2.43,2.16S216.16,131.08,216.16,129.39Z" fill="#848484"/>
        <path d="M227.17,127.37h-1.08c-.27,0-.41-.21-.41-.68v-.27c0-.47.14-.68.41-.68h1.08l.27-2.29c0-.27.2-.48.67-.48h.21c.47,0,.67.21.67.48v2.29h1.82c.27,0,.41.21.41.68v.27c0,.47-.14.68-.41.68H229v6.68c0,1.28.54,1.62,1.15,1.62a4.81,4.81,0,0,0,.94-.13c.27,0,.48.81.48,1,0,.61-1,.68-1.56.68-1.08,0-2.77-.48-2.77-3l-.06-6.88Z" fill="#848484"/>
        <path d="M234.26,121.35c0-.27.27-.47.88-.47h.06c.61,0,.88.2.88.47v5.81a4.76,4.76,0,0,1,3.31-1.48c1.42,0,3.45.54,3.45,3.51v7.5c0,.27-.27.47-.88.47h-.07c-.61,0-.88-.2-.88-.47v-7.3a2,2,0,0,0-2.23-2.09,3.76,3.76,0,0,0-2.7,1.48v7.91c0,.27-.27.47-.88.47h-.06c-.61,0-.88-.2-.88-.47V121.35Z" fill="#848484"/>
        <path d="M250.67,125.68c3,0,4.46,1.95,4.46,5.6,0,.27-.47.88-.75.88h-6.82c.21,2.36,1.22,3.44,3.31,3.44a7.51,7.51,0,0,0,3.18-.87c.27,0,.74.81.74,1.08,0,.54-1.69,1.35-3.85,1.35-3.58,0-5.27-1.83-5.27-5.68S247.36,125.68,250.67,125.68Zm2.5,4.93c0-2.23-.88-3.38-2.57-3.38-1.89,0-2.83,1.15-3,3.38Z" fill="#848484"/>
        <path d="M263.3,122.43c0-.27.27-.47.88-.47h.2c.61,0,.88.2.88.47v14.26c0,.27-.27.47-.88.47h-.2c-.61,0-.88-.2-.88-.47Z" fill="#848484"/>
        <path d="M269.18,129.05a11.6,11.6,0,0,0-.27-2.7c0-.4.87-.47,1.14-.47.54,0,.61.88.75,1.42a4.57,4.57,0,0,1,3.37-1.62,3.2,3.2,0,0,1,3.52,3.51v7.49c0,.28-.27.48-.88.48h-.07c-.61,0-.88-.2-.88-.48v-7.29a2,2,0,0,0-2.23-2.09,3.72,3.72,0,0,0-2.7,1.48v7.9c0,.28-.27.48-.88.48H270c-.61,0-.88-.2-.88-.48l.07-7.63Z" fill="#848484"/>
        <path d="M281.6,127.37h-1.08c-.27,0-.4-.21-.4-.68v-.27c0-.47.13-.68.4-.68h1.08l.27-2.29c0-.27.27-.48.68-.48h.2c.47,0,.68.21.68.48v2.29h1.82c.27,0,.4.21.4.68v.27c0,.47-.13.68-.4.68h-1.82v6.68c0,1.28.54,1.62,1.14,1.62a5,5,0,0,0,.95-.13c.27,0,.47.81.47,1,0,.61-1,.68-1.55.68-1.08,0-2.77-.48-2.77-3l-.07-6.88Z" fill="#848484"/>
        <path d="M292.88,125.68c3,0,4.46,1.95,4.46,5.6,0,.27-.47.88-.74.88h-6.83c.21,2.36,1.22,3.44,3.31,3.44a7.45,7.45,0,0,0,3.18-.87c.27,0,.74.81.74,1.08,0,.54-1.69,1.35-3.85,1.35-3.58,0-5.27-1.83-5.27-5.68S289.57,125.68,292.88,125.68Zm2.5,4.93c0-2.23-.88-3.38-2.57-3.38-1.89,0-2.83,1.15-3,3.38Z" fill="#848484"/>
        <path d="M300.24,129.05a11.6,11.6,0,0,0-.27-2.7c0-.4.88-.47,1.15-.47.54,0,.61.88.74,1.42a3.35,3.35,0,0,1,2.5-1.62c.81,0,1.29.33,1.29.81s-.21,1.14-.41,1.14a6,6,0,0,0-1.21-.2,2.77,2.77,0,0,0-2,1.29v7.9c0,.27-.27.47-.88.47h-.07c-.61,0-.88-.2-.88-.47v-7.57Z" fill="#848484"/>
        <path d="M308,129.05a11.6,11.6,0,0,0-.27-2.7c0-.4.88-.47,1.15-.47.54,0,.61.88.74,1.42a4.59,4.59,0,0,1,3.38-1.62,3.2,3.2,0,0,1,3.51,3.51v7.49c0,.28-.27.48-.88.48h-.07c-.6,0-.87-.2-.87-.48v-7.29a2,2,0,0,0-2.23-2.09,3.68,3.68,0,0,0-2.7,1.48v7.9c0,.28-.27.48-.88.48h-.07c-.61,0-.88-.2-.88-.48l.07-7.63Z" fill="#848484"/>
        <path d="M324.42,125.68c3,0,4.46,1.95,4.46,5.6,0,.27-.47.88-.74.88h-6.82c.2,2.36,1.21,3.44,3.3,3.44a7.45,7.45,0,0,0,3.18-.87c.27,0,.74.81.74,1.08,0,.54-1.69,1.35-3.85,1.35-3.58,0-5.27-1.83-5.27-5.68S321.11,125.68,324.42,125.68Zm2.5,4.93c0-2.23-.88-3.38-2.57-3.38-1.89,0-2.83,1.15-3,3.38Z" fill="#848484"/>
        <path d="M332.12,127.37H331c-.27,0-.41-.21-.41-.68v-.27c0-.47.14-.68.41-.68h1.08l.27-2.29c0-.27.2-.48.68-.48h.2c.47,0,.67.21.67.48v2.29h1.83c.27,0,.4.21.4.68v.27c0,.47-.13.68-.4.68h-1.83v6.68c0,1.28.54,1.62,1.15,1.62a5.12,5.12,0,0,0,1-.13c.27,0,.47.81.47,1,0,.61-1,.68-1.55.68-1.08,0-2.77-.48-2.77-3l-.07-6.88Z" fill="#848484"/>
      </g>
      <g>
        <path d="M150.31,67.59c5.67,0,10.94,2,10.94,3.58,0,1-1.21,3.31-2,3.31s-3.38-2.5-8.91-2.5c-10.13,0-13.44,5.88-13.44,15.88,0,8.77,2.63,16.2,12.83,16.2a32.15,32.15,0,0,0,7.36-.74V91.77h-6.69c-.81,0-1.14-.54-1.14-1.69v-.94c0-1.22.33-1.69,1.14-1.69h10.07c1.21,0,1.69.54,1.69,1.69v15.19c0,3.25-6.22,4.12-12.77,4.12-11.41,0-17.69-6.41-17.69-20C131.74,74.08,138.36,67.59,150.31,67.59Z" fill="#fff"/>
        <path d="M168.14,86.84a33.2,33.2,0,0,0-.68-7.22c0-1.08,2.37-1.35,3.11-1.35,1.35,0,1.69,2.29,2,3.78,2-2.77,4.25-4.33,6.62-4.33,2.22,0,3.3,1,3.3,2.23,0,1.08-.47,3.11-1.14,3.11s-1.22-.61-3.18-.61c-3,0-5.27,3.51-5.27,3.51v21c0,.81-.67,1.28-2.29,1.28h-.2c-1.63,0-2.3-.47-2.3-1.28V86.84Z" fill="#fff"/>
        <path d="M198.19,77.72C206,77.72,210,82.93,210,92.65c0,.68-1.21,2.36-1.89,2.36H190c.47,6.35,3.18,9.26,8.85,9.26,5,0,7.77-2.43,8.37-2.43.81,0,2,2.22,2,2.83,0,1.35-4.52,3.65-10.33,3.65-9.53,0-14.05-4.86-14.05-15.13C184.82,83.13,189.41,77.72,198.19,77.72ZM204.88,91c0-6-2.3-9-6.89-9-5,0-7.63,3-8,9Z" fill="#fff"/>
        <path d="M227.91,77.72c7.83,0,11.82,5.21,11.82,14.93,0,.68-1.22,2.36-1.89,2.36h-18.1c.47,6.35,3.17,9.26,8.85,9.26,5,0,7.76-2.43,8.37-2.43.81,0,2,2.22,2,2.83,0,1.35-4.53,3.65-10.34,3.65-9.52,0-14-4.86-14-15.13C214.61,83.13,219.13,77.72,227.91,77.72ZM234.66,91c0-6-2.29-9-6.88-9-5,0-7.64,3-8,9Z" fill="#fff"/>
        <path d="M244.93,86.84a33.2,33.2,0,0,0-.68-7.22c0-1.08,2.37-1.35,3.11-1.35,1.35,0,1.69,2.29,2,3.78a12.39,12.39,0,0,1,8.91-4.33c5.88,0,9.32,3.52,9.32,9.26v19.85c0,.81-.67,1.29-2.29,1.29h-.21c-1.62,0-2.29-.48-2.29-1.29V87.38c0-3.51-2.1-5.54-5.88-5.54a9.71,9.71,0,0,0-7.23,4v21c0,.81-.67,1.29-2.29,1.29h-.2c-1.63,0-2.3-.48-2.3-1.29v-20Z" fill="#fff"/>
        <path d="M277.89,98.39c1,0,3.85,2.64,8.44,2.64,2.43,0,5.4-.75,5.4-4.19,0-6.76-16.54-4.12-16.54-17.63,0-8.44,6.89-11.75,13.57-11.75,6.08,0,10.33,2.09,10.33,4,0,1.56-1.75,5-3.17,5-.74,0-2.5-1.42-6.35-1.42-4.45,0-5.33,2.1-5.33,3.38,0,6.55,16.54,3.92,16.54,17.36,0,9.52-6.68,12.69-13,12.69-8.72,0-13.44-3.1-13.44-5.06C274.38,101.7,276.67,98.39,277.89,98.39Z" fill="#88ce02"/>
        <path d="M318.07,77.66c9.12,0,13.85,5.47,13.85,15.4s-4.73,15.46-13.85,15.46-13.91-5.47-13.91-15.46S309,77.66,318.07,77.66Zm5.27,15.4c0-5.74-1.62-8.72-5.27-8.72s-5.33,3-5.33,8.72,1.69,8.78,5.33,8.78S323.34,98.8,323.34,93.06Z" fill="#88ce02"/>
        <path d="M350.36,77.66c4.05,0,9.52,1.35,9.52,4,0,1.08-2.09,4.39-3,4.39a4.34,4.34,0,0,1-1-.4,10,10,0,0,0-5-1.29c-4.59,0-6.48,2.84-6.48,8.72s1.75,8.78,6.14,8.78a12,12,0,0,0,5.61-1.35,3.2,3.2,0,0,1,1-.34c1.28,0,3,3.24,3,4.32,0,3.24-8.17,4-10,4-9.8,0-14.46-5-14.46-15.26S340.09,77.66,350.36,77.66Z" fill="#88ce02"/>
        <path d="M364.2,66.72c0-1.22,1-1.83,3.45-1.83h1.62c2.43,0,3.44.61,3.44,1.83V89.41l.2.07,7-10.4c.68-1,1.82-1.09,3.51-1.09h2.1c2.16,0,3.24.34,3.24.88a2.47,2.47,0,0,1-.54,1.15l-8,11.35,9.32,14.79a3.14,3.14,0,0,1,.47,1.21c0,.54-1,.88-3.24.88h-2.43c-1.69,0-2.91-.2-3.45-1.08l-8-13.17-.2.07v12.36c0,1.21-1,1.82-3.44,1.82h-1.62c-2.44,0-3.45-.61-3.45-1.82V66.72Z" fill="#88ce02"/>
      </g>
      <g>
        <path d="M26,92.58c-3.44,1.62-12.56,8.92-14.32,11.08s-2.36-1.22-.47-6.82c1.49-4.53,5.27-10.67,11.62-15.94,3.71-3,11.89-7.43,16.88-10a168.27,168.27,0,0,1,25.8-8.84c1-.27-1.21,1.68-1.55,2.77C62.17,70,27.12,92,27.12,92Z"/>
        <path d="M75.34,154.52c.61,3.64.07,3.91-3.71,4.39a9.83,9.83,0,0,1-7.57-1.9c-1-.94-1.21-3-.2-4.93.61-1.21,1.22-1.62,1.56-3.1a7.43,7.43,0,0,1,.87-2.3c.27-.47.34-1,.41-4.25s0-9.53.34-12.16,12,1.21,12,1.21-2.77,6.89-3.51,8.58-.68,4.93-.68,5.61a4.58,4.58,0,0,1-.47,2.09c-.2.07.67,1.82.27,2.84S75.28,154,75.34,154.52Z"/>
        <path d="M79.8,51.25c-.41-2.57,0-7.63.54-8.44,1.69-2.3,10.6-2.57,12.5.13.81,1.22.74,4.06.6,5.88s-.6,5.74-.67,7c-.07.95-9.86,2.43-12-.13C80.14,55,79.8,51.25,79.8,51.25Z"/>
        <path d="M99.66,148c4.12,3,7.29,3.52,9.38,4.6s1.56,3.17-2,3.78c-2.84.54-7.3-.54-10.27-.54s-9.59.34-11.35-.88c-2-1.42-1.14-4-1.14-4,.54-1.49,1.89-4.8,1.48-7.5a24.82,24.82,0,0,0-2-6.68c-1-2.5-1.75-8.65-.81-9s.68,0,1.89.27a19.67,19.67,0,0,0,5.2.68,39.87,39.87,0,0,0,6.55-.61c1-.2,1.83-.41,1.49,1.69s-1.35,6-1.42,9.05a48.91,48.91,0,0,0,.14,7.16C97.09,146.55,98.58,147.22,99.66,148Z"/>
        <g>
          <g>
            <path d="M85.2,58c-7.43,6.42-21.81,8.18-43.15,16.42C36.58,76.51,22,82.79,18.48,89.34c11.82-6.82,16.21,2.57,17.15,12.23.88,9.05,5.4,13.77,17,13.5,11.95-.27,15.6,6.69,18.91,14.86C78,98.66,88.24,92.58,94.86,87.25,108.91,75.83,91.62,55.71,85.2,58Z" fill="#88ce02"/>
            <path d="M85.2,58C67.37,64.22,49.75,65.77,29,78.54c-4.93,3-15.33,9.92-17.36,23.09C19.22,93.26,36.71,82.72,58.12,76c10.81-3.38,18.71-5.61,28.3-9.32C85.74,62.39,85.74,60.71,85.2,58Z" fill="#88ce02"/>
          </g>
          <path d="M108,95s-1.28,4.39-3.85,5.81c0,0-1.89.68-5.67-1.42A4.84,4.84,0,0,1,96.62,96a3.15,3.15,0,0,1,1.08-2.37s1.08-1.82,2.36-1.75,3.45.27,4.12-.34S108.1,92.79,108,95Z"/>
          <path d="M80.41,52.53a53.25,53.25,0,0,1-.74,5.61c-.07.4-2.1.61-3.58,1.21,2.83,8.11,19.92,8,22.15,4.06A28.88,28.88,0,0,0,94,61.11c-1-.4-.94-.34-1-2.23s-.2-5.4-.34-6.35S82,51.59,80.41,52.53Z"/>
          <path d="M81.08,52.53s0,2-.2,3.85a15.69,15.69,0,0,1-.27,2.1c-.07.4,2.3,2,3,5.6,3.24,7.23,10.74,3.65,13.85.2a26.44,26.44,0,0,0-4.86-2.56c-1-.41-.55-1.28-.61-3.18s-.34-4.66-.48-5.67S82.7,51.59,81.08,52.53Z" fill="#efefef"/>
          <path d="M80.41,52.53s-.07,1.22-.27,2.64c.88.88,2,2.09,2.9,2.83.61.54,2.1.48,3.45.48a8.11,8.11,0,0,0,2.77-.14,14.19,14.19,0,0,0,3.51-2.9c-.07-1.22-.14-2.37-.2-2.91C92.5,51.59,82,51.59,80.41,52.53Z"/>
          <path d="M86.55,57.67a14.34,14.34,0,0,1-2.49-.21,3.88,3.88,0,0,1-1-.4c-.47-.34-1-.74-1.49-1.15-1.08-.81-1.14-1.28-1.14-1.49a31.41,31.41,0,0,0-.14-7.83s-.47-1.82,2.09-2.3a34,34,0,0,1,4.12-.54,21.52,21.52,0,0,1,4.12.54c2.57.48,2.1,2.3,2.1,2.3a31.41,31.41,0,0,0-.14,7.83c0,.21-.06.68-1.15,1.49a7.62,7.62,0,0,1-2.43,1.55A14.46,14.46,0,0,1,86.55,57.67Z"/>
          <path d="M86.55,42c-4.45,0-5.33,1.21-6.61,2.56-.27.34-.07,2.37.4,6.69H81a8,8,0,0,1-.34-2.63c.07-1.42.34-1.35.14-1.69s-.81-1.08.4-1.76,3.11.54,5.4.61,4.26-1.28,5.47-.61.68,1.35.41,1.76.07.27.14,1.69a8.31,8.31,0,0,1-.34,2.63h.6c.41-4.32.68-6.21.48-6.55C92.16,43.21,91,42.06,86.55,42Z"/>
          <path d="M108,95.22s-1.28,4.12-3.78,5.54c-.54-.27-.47-.68-.94-1.29-.14-.2-.61-.34-.81-.54s-.14-.54-.48-.81-.47-.07-.74-.27-.34-.61-.54-.81-.68-.2-.81-.34c-.34-.33-3.31-.94-3.18-1.62a5.73,5.73,0,0,1,.82-1.75s1.28-1.89,2.56-1.83,2.5.34,3.18-.27S108.17,93.06,108,95.22Z"/>
          <path d="M99.18,65.37s4.26-1,7.16,1.75a7.68,7.68,0,0,1,1.83,8.51,6.56,6.56,0,0,1,1.08,6.21c4.45,3.79,2.5,9.6-1.49,13.44A5.23,5.23,0,0,0,103,91.57c.14-1.35-3.51-2.43-1.82-5.94-2.57-.61-2.5-2.37-2.9-4.53S99.18,65.37,99.18,65.37Z"/>
          <path d="M97.63,67.26s4.93-2.5,7.83.33,2.1,6,1.22,8.11a6.54,6.54,0,0,1,1.42,6.35c-.2.67-1.69.67-2.77,2.43,2.7-1.56,4.39-1.15,5,.81.94,3-1.15,6.68-3,8.71,0-.07-.07-.13-.07-.2a10.3,10.3,0,0,1-2.64,5.13c-1,1.08-1.82.95-3,.68-1.35-.34-1.82-1-3.71-2-1.08-.61-.48-1.35-.48-2a1.41,1.41,0,0,1,.34-.61A5.36,5.36,0,0,1,99,93.6a2.82,2.82,0,0,1,2.16-1.15,5.15,5.15,0,0,0,3-.54h0c0-2.37-2.7-2.43-1.75-6.49.07-.2.4-.54,1.48-.67-1.62-.34-2.36-.41-3.51-1.49a5,5,0,0,1-1.62-2.9C98.31,78.27,97.63,67.26,97.63,67.26Z" fill="#efefef"/>
          <path d="M83.38,63a12.24,12.24,0,0,0-6.48-4.32c-1.15-.34-1.89.61-3,1.28-.34-.2-1.83-.88-2.64-.4a18.8,18.8,0,0,1-2.16,1.28A3.65,3.65,0,0,0,66.7,61a6.64,6.64,0,0,0-3.51,2.63c-.81,2.9,14.31.74,14.31.74Z"/>
          <path d="M83.52,63c-2.17-.74-1.83-3.24-6.62-3.65-1-.06-1.56.68-2.23,1.15a4.34,4.34,0,0,1,.88,1.42,5.72,5.72,0,0,0-2.77-1.76c-1-.2-1.69.55-2.77,1.09a7.4,7.4,0,0,1,.67.94,2.76,2.76,0,0,0-2.9-.34,7.47,7.47,0,0,0-3.85,2.84c-.81,2.9,13.64-.34,13.64-.34Z" fill="#88ce02"/>
          <path d="M96.21,64.08s0-.74-.07-1.42c0-.13-.54-.47-.54-.6l-.13-.14a2.56,2.56,0,0,1,1.89-.27,2.67,2.67,0,0,1,1.35,1.42c1.55-.54,1.69.07,2.43.88,1.62-.34,1.83.27,2.84,1.75a12,12,0,0,0-3.58.21C98.1,66.24,96.21,64,96.21,64.08Z"/>
          <path d="M95.94,63.74s.41-.33.27-.4c.74-.41,1.76-.88,2.23.4,1.55-.54,1.76.21,2.5,1,1.89-.88,2,.2,2.16.67a25.73,25.73,0,0,0-2.7.21C98.1,66,95.87,63.68,95.94,63.74Z" fill="#88ce02"/>
          <path d="M73,62.06a21.38,21.38,0,0,0,7.09,1.14c3.24-.27,8.78-.54,11.75,1.22a11.41,11.41,0,0,1,5.88-.34c2.83.74,8,5.61,6.48,10.74a3.94,3.94,0,0,1-2,1.22,7,7,0,0,1-.41,4.18,21.56,21.56,0,0,0-3.11,10.2h0c-.06.81-.2,2.5-.33,3.31-5.27-.2-13.38-2.16-21.35-2,.07-.88.14-1.42.21-2.3h.2c-.41-2.23-.54-3.38-1-5.07a22.43,22.43,0,0,1-7.56-7.09C66.63,73.67,73,62.06,73,62.06Z"/>
          <path d="M99.05,98.53s4.19,15-.74,21.27a9,9,0,0,1-1,6c-.27,1.35-.61,2.57-.81,3.92-.88,5.6-2.36,8-2.77,17l-4-.07s-.47-6.48-1.89-9.92c-.81-2-4-4.6-3.85-7.23.13-2,.54-3.72,4-6.42.27-3.91-3.64-7.63-3-22.22Z"/>
          <path d="M97.83,97.92c1.08,6.89,3.58,17.09-.94,22.08a10.06,10.06,0,0,1,.06,3.85,15.23,15.23,0,0,1-.74,2.64,24.93,24.93,0,0,0-1.15,5.4c-.87,5.61-.87,5.88-1.28,14.86l-4-.07s-.47-6.48-1.89-9.93c-.81-2-2.5-3.64-2.64-6.28-.13-2,1.29-6.08,4.66-5.94-.2-8.17-4-6.55-5-23.57Z" fill="#efefef"/>
          <path d="M73,62.06a16,16,0,0,0,3.11.6A40.4,40.4,0,0,0,81,62.6c3.24-.27,7.83-.61,10.87,1.14a10.39,10.39,0,0,1,3.51-.4,18.8,18.8,0,0,1,2.57,1c3,.75,5.81,5.68,4.52,10.13-.13.34-1.08,0-2.16.34a9,9,0,0,1-.74,5.4,19.52,19.52,0,0,0-2.37,11C90.13,90.83,87,90.35,79.94,90a41,41,0,0,1-1.09-6.28,6.77,6.77,0,0,0,2.23-1.69c-2,.34-2.83.2-4-.48a20.06,20.06,0,0,1-4.46-4.25c-.13-.14-.87,2.09-2.56,2.16-.61-.88,2-3.38,1.48-4.32C69.8,71.71,73,62.06,73,62.06Z" fill="#efefef"/>
          <path d="M98.37,92.31s.14,2.43.14,3,.54,2.7.61,3.65c-.75,1.28-4,4.19-9.86,5.27s-13.51-7.9-13.51-7.9c.2-.88.88-3.45,1.35-4.8a2,2,0,0,0,.2-.61C77.91,90.08,98.37,92.31,98.37,92.31Z"/>
          <path d="M96.89,92.52a19.73,19.73,0,0,0,.47,4,34,34,0,0,1,.88,4.53c0,3.91-5.13,3.24-9.46,3.37C83,105.62,78,96.5,78,96.5a38.86,38.86,0,0,1,1.29-4.79h0c.06-.81.2-1.83.27-2.3A171.48,171.48,0,0,1,97,90.22a5.9,5.9,0,0,1-.13,2.3Z" fill="#efefef"/>
          <path d="M90.4,101.23s-3.58-8-14.31-5.61c-2.57,7.23-6,15.54-3.79,24.52-2.23,3-4.79,4.73-4.79,10.33s.27,6.55.27,6.55l7.9.41a23.52,23.52,0,0,0,3.58-6.89,14.72,14.72,0,0,0,.34-4.93,5.36,5.36,0,0,0,1.55-3.17,15.4,15.4,0,0,0,6.08-7C89.32,111,88.78,107.17,90.4,101.23Z"/>
          <path d="M90.4,101.23c-.2-.74-2.9-8-12.9-5.88-5.87,15.67-3.71,22.15-2.83,25-4,5.07-5.81,6.15-5,16.41h5.27c2.43-3.85,3-5.27,3.1-10.33,0-.2-.74.4-1.28,1.08.41-2.09,1.55-2.5,2.43-3.78a4,4,0,0,0,.75-2.43c4.72-3.18,6.48-7.16,7.49-11.28C88.24,107.17,89.19,102.51,90.4,101.23Z" fill="#efefef"/>
          <path d="M73.72,90.35a14.3,14.3,0,0,1,3.45.61,3.57,3.57,0,0,1,2.16,1.56c.61.67,2.09,1.68,1.82,2.7-.13.54-.47.67-.94,1.15-.21.2-1.69,1.82-2,2s-.47.34-.68.47l-1,.68a3.13,3.13,0,0,1-1.89.47,4.48,4.48,0,0,1-2.77-1.21s-.13-.54.14-.81a9.91,9.91,0,0,1-1.83-2A3.46,3.46,0,0,1,70,93.39C70.14,92.79,72.78,91.1,73.72,90.35Z"/>
          <path d="M75.41,156.07l-.2,1.69s-.61.74-5.13.67-5.81-1.48-6.22-2.23l-.27-1.75s.88-1.29,1.08-1.29c1.49.14,6.55,2.17,10.07,2.71C75.07,155.87,75.14,156,75.41,156.07Z"/>
          <path d="M85.2,152.62c0,.75-.06.75-.06,1.49.81.61,2.83.95,6.68.88,5.61-.14,10.81,1.69,17.16.61l.06-1.22-.6-.07L86,152.49Z"/>
          <path d="M90.13,155h1.69c3.65-.14,7.09.67,10.81.88,2-.07,4.39-.54,4.19-2l-19.19-1.62C86.49,153.57,87.36,154.65,90.13,155Z"/>
          <path d="M68.12,126.55c.6.41,4.72,2.84,11.41,2.5-.14,1.29-.07,3.79-3,8.18-1.48,2.16-2.77,5.94-3,10.73.07,1.08.68,2-.13,3.45a38.49,38.49,0,0,0,1.89,3.71c.54,1.08.81,2.3-2.77,2.37s-9.52-.34-8.71-3.18c.4-1.48,1.55-3,1.68-3.64s.14-2.44,1.29-3.65c1-3.38.67-6.62.47-9.66S66.77,129.12,68.12,126.55Z"/>
          <path d="M74.4,71.51c4.79-6.41.74-11.55-7-10-3.11.6-6.21,2.77-6.42,6.68-1,.14-3.3.27-4.45,4.46-.88,3.24-1.35,3.85-2.91,5.47-1,1.15.07,3.51.81,5.2,2.5,5.81,10.2,6.35,15.4,10.74A7.45,7.45,0,0,0,74,90.35c-4.39-5.2-3.44-7.22-5.2-9.92A8.44,8.44,0,0,0,74.4,71.51Z"/>
          <path d="M73.45,71.11c.27-.41.74-1.29,1-1.62.07-.07.81,1.21.88,1.14,1.82-3,2.29-7.29.2-7.7a11.4,11.4,0,0,1-2.1-.54,8.38,8.38,0,0,0-4.72-.06c-3,.54-5.95,2.7-5.95,5.8,0,.21,2.1.81,2.7,3.31-1-1.41-2.76-3-4.86-1.62s-1.08,4.66-4,8c-1,1.15-.88,2.5.2,5.2,1.76,4.26,10.07,6.55,14.59,10.6a6.08,6.08,0,0,0,2.36-2.36A24,24,0,0,1,68.52,83a13.7,13.7,0,0,0-4.66-5.81,12.77,12.77,0,0,1,2.7,1.35,2.68,2.68,0,0,0,2.3.21C71.76,77.72,73.32,73.67,73.45,71.11Z" fill="#efefef"/>
          <path d="M102.83,72.19c-.2,2.56-2.09,1.28-3.11.81a15.63,15.63,0,0,0-6.41-1.49,33.76,33.76,0,0,0-8,.88c-3.65,1-4.73,1-6.35.13a46.94,46.94,0,0,1-4.45-3,2.4,2.4,0,0,0,.6,1.55,12.52,12.52,0,0,0,5.47,3.31A6,6,0,0,0,84,74.21c6-1.48,12.36-1.75,17.69,1.49.27.13,1.22-.27,1.62-.88C103.84,73.94,102.83,72.19,102.83,72.19Z"/>
          <path d="M72.1,97.92a13,13,0,0,1,2,1.15,1.5,1.5,0,0,1-.88-.27,10.18,10.18,0,0,1-1.08-.88Z" fill="#001423"/>
          <path d="M91.62,44.36c-.2-.61-1.69-1.69-5.13-1.69-3.72,0-4.8,1.15-4.87,1.76,0,.2-.27,2.36-.33,3.24,0,0,0,1.08.06,2.7.07,1.08.34,1.69.48,3.11a7.66,7.66,0,0,0,1.28,3.65,3.23,3.23,0,0,0,1,.47,13.72,13.72,0,0,0,5,0A3.67,3.67,0,0,0,90.94,55c.27-1.41.54-2.43.61-3.3s.2-2.84.27-3.38A14.26,14.26,0,0,0,91.62,44.36Z" fill="#efefef"/>
          <path d="M84.53,127.84s3.58,1.55,12.43.2c0,0-2.5,12.56-1.36,18.84,0,0,1.15,1.62,9.66,4.73,0,0,3.78.95,3.65,2.84,0,0,.13.4-4.46.27s-8.91-.95-12-.95-6.28.14-6.82-.74.13-2.9,1-4.12.67-2.23.61-4.53C87.09,138.37,82.5,132.16,84.53,127.84Z"/>
          <path d="M83.78,129c-.47.67.07,3.24.75,5.74s2.16,4,2.5,8.1.4,4.59-.75,7-1.48,4.52,2.5,4.59a65,65,0,0,1,10.2.54c4,.61,5.47.81,7.7.47s2.7-1.08,1.76-1.75-4.87-1.42-6.56-2.77-6.21-3.24-6.28-3.78a69.84,69.84,0,0,1,.07-10.61c.34-2.16.81-5.27,1-6.08s.81-1.62-.34-1.35a39.19,39.19,0,0,1-8.71.68C84.33,129.53,84,128.78,83.78,129Z" fill="#88ce02"/>
          <path d="M86.08,149.86a10.82,10.82,0,0,0,4.12.94,6.31,6.31,0,0,0,.27,3.58c.74,1.35-5.4.54-5.4.54l-.27-4.79Z" opacity="0.3" style="isolation: isolate"/>
          <path d="M104,155.66a1.68,1.68,0,0,0,.94-2.7c-.94-1.15-1.75-1.35-.54-1.42s5.68,2.64,5.68,2.64l-2.3,2.09Z" opacity="0.3" style="isolation: isolate"/>
          <path d="M83.58,131.62a18.29,18.29,0,0,0,6,.61,27.51,27.51,0,0,0,7-1c2-.67,1.15.75,1.15.75l-1.08,1a19.35,19.35,0,0,1-6.76.95c-4.93-.07-6.41-.61-6.41-.61Z" opacity="0.3" style="isolation: isolate"/>
          <path d="M83.72,135a18.21,18.21,0,0,0,5.94.6c2-.06,4.73-.06,6.69-.81.81-.27.33.88.33.88l-.33.61a20.75,20.75,0,0,1-6.76.88c-4.93-.07-5.81-.48-5.81-.48Z" opacity="0.3" style="isolation: isolate"/>
          <path d="M84.53,127.84a25.35,25.35,0,0,0,12.49.67s-2.56,12.09-1.42,18.31c0,0,1.15,1.62,9.66,4.72,0,0,3.78,1,3.65,2.84,0,0,.13.41-4.46.27s-8.91-1-12-1-6.28.14-6.82-.74.13-2.9,1-4.12.67-2.23.61-4.52C87.09,138.37,82.5,132.16,84.53,127.84Z" fill-opacity="0"/>
          <path d="M84.53,127.84a25.91,25.91,0,0,0,12.49.61s-2.56,12.15-1.42,18.37c0,0,1.15,1.62,9.66,4.72,0,0,3.78,1,3.65,2.84,0,0,.13.41-4.46.27s-9-1.42-12-1c-3.18.54-6.28.34-6.82-.74-.48-.88.13-2.9,1-4.12s.67-2.23.61-4.52C87.09,138.37,82.5,132.16,84.53,127.84Z" fill-opacity="0"/>
          <path d="M79.26,87.65c0,.48,5.27,3.11,8.17,3.65s9,0,9.93-.2l-.14.94s-7.22,1.08-12.76-.4-4.93-1.83-4.93-1.83Z"/>
          <g>
            <path d="M68,145.26a11.29,11.29,0,0,0,5.61.75c.27-.07,0-4.66.74-6.76,1.08-2.9,2.84-5.27,3.65-10.4a42.38,42.38,0,0,1-7.77-1.55C68.05,133.92,68.79,139.59,68,145.26Z" fill="#efefef"/>
            <path d="M72.51,149.52c.47.13.81.67.94.34.27-.61-.47-1.76-.54-2.57v-.07c-.61-.54-4.73-.61-4.46-.34-.47.88-1.21.75-1.48,2.5-.14.88.94.14,2,.07-1.83,1.22-3.92,2.77-4.26,4.12-.4,1.89.27,2.43,2.3,3.44a21.46,21.46,0,0,0,5.47.41c1.82-.34,2.16-1.22,1.62-2.43A24.53,24.53,0,0,1,72.51,149.52Z" fill="#efefef"/>
          </g>
          <path d="M73.25,61.79c2.23,1.28,5.33.94,6.48.87.27,0,3-.47,3.11-.4s.27.27.27.27a8.7,8.7,0,0,1-3.31.67,14.49,14.49,0,0,1-6.15-.67C72,61.79,73.25,61.79,73.25,61.79Z"/>
          <path d="M96.21,63.07c.41.27,3,1.28,4.19,2.5s.47,1,.27.74a16.1,16.1,0,0,0-3.17-2.09,5.91,5.91,0,0,1-1.83-1.08C95.67,63,96.21,63.07,96.21,63.07Z"/>
          <path d="M72.91,91.1a6.58,6.58,0,0,1,5.27,1.69c.67.67,1.76,1.41,1.62,2.09A3.69,3.69,0,0,1,79.06,96a13.3,13.3,0,0,1-1,1.08c-.27.2-1.21.94-1.41,1.08s-.48.47-.68.54a2.32,2.32,0,0,1-2.09-.27c-.68-.34.13-.41-.61-.95-1.82-1.28-2.84-2.16-2.09-4.66C71.22,92.38,72,91.84,72.91,91.1Z" fill="#efefef"/>
        </g>
        <path d="M55.69,75.63c-6.08,2.43-21.55,10.13-25.93,12.5h0c3.64,2.29,5.33,7.83,5.87,13.44.07.54.14,1,.2,1.55a6.23,6.23,0,0,0,.21,1,.43.43,0,0,0,.06.27c4-10.87,18.24-22.35,18.78-23.23.27-.41-.34-2.16.61-3.85C56.7,75.16,59.07,74.21,55.69,75.63Z" opacity="0.4" style="isolation: isolate"/>
        <path d="M70.14,126.62c3.11-6.21,3.18-12.15,3.11-19.11,0-2.91,2.09-7,1-5.88-4.05,4.53-14.25,13-21.61,13.51C63,114.8,67,120,70.14,126.62Z" opacity="0.4" style="isolation: isolate"/>
        <path d="M23.81,93.87C27.66,91.1,47.58,80.49,52.38,79s3.31-3.38,3.31-3.38S36.24,84,24.62,91.23"/>
        <path d="M80.54,74.35c-1.55-.61-2.77,1.21-2.36,3S82.23,81,82,87.45c-.14,5.27-1.28,7.43-1.28,7.43l-2.57-3.24s-.41-7.3-1.28-8.38-3.65-3-4.73-4.05,1.21-2.36,1.08-4.25,1.15-5.47,1.15-5.47Z" opacity="0.4" style="isolation: isolate"/>
        <path d="M89.93,103.12c-.13,5.06,1,12.56,1.49,16.14s1.08,3.85,0,5.47-2.5,4.12-2.5,4.12l-4.66-.4s3.71-4.73,3.91-5.61-1.89-7.56-1.89-7.56Z" opacity="0.4" style="isolation: isolate"/>
        <path d="M81,55.84a5.94,5.94,0,0,0,3.92,3.65c1.08.41,5.33.95,7-1,.74-.87.27-3.24.27-3.24l-3.85,3.11-5.2-.95-.61-1.55Z" opacity="0.4" style="isolation: isolate"/>
        <path d="M81.35,60.5c1.76,1.15,6.15,2.23,7.37,2.43s3.17-1.28,4.11-1.68,2.77-.75,4.8,1.08c.2.2-.47,1.08-.47,1.08a8.2,8.2,0,0,1-1-.34,3.1,3.1,0,0,0-1.82-.41c-3.38.41-3.92,1.56-6.89.88s-3.71-1.21-6.62-1.08" fill="#88ce02" stroke="#000" stroke-linejoin="round" stroke-width="0.53"/>
        <path d="M80.75,60.71a58.66,58.66,0,0,0,7.76,2.22c1.22.27,3.18-.94,4.12-1.55,1.69-1.08,3.85-.2,4.87.95.67.74.94,1.21.94,1.41s-.81,0-.81,0a8.88,8.88,0,0,1-1.42-.54,3.3,3.3,0,0,0-1.89-.6c-3.38.4-4,1.55-7,.87s-3.64-1.28-6.75-1.08" fill="#88ce02"/>
        <path d="M70.28,123.79c-.14-.14.13-.27,0-.27a3.88,3.88,0,0,1-2.77-1.63c-2.91-4.18-7.16-7-14.86-6.75-11.55.27-16.14-4.46-17-13.51-.47-4.93-1.82-9.72-4.59-12.42l-1.62,1c3.1,2.7,4.12,7.09,4.79,13.1,1.08,9.05,8.38,13.24,16.89,13.37,8.84.14,12,2,15.33,6.42a5.26,5.26,0,0,0,3.24,2.09Z"/>
        <path d="M101.62,80.36a7.69,7.69,0,0,0,1.82,3.92c.47.47.54.6.13.6s-3.37-.13-3.37-.13l-.81-1.42Z" opacity="0.4" style="isolation: isolate"/>
      </g>
    </g>
  </g>
</svg>
